<?xml version="1.0" encoding="UTF-8" standalone="no"?>
<!-- Created with Inkscape (http://www.inkscape.org/) -->

<svg
   xmlns:dc="http://purl.org/dc/elements/1.1/"
   xmlns:cc="http://creativecommons.org/ns#"
   xmlns:rdf="http://www.w3.org/1999/02/22-rdf-syntax-ns#"
   xmlns:svg="http://www.w3.org/2000/svg"
   xmlns="http://www.w3.org/2000/svg"
   xmlns:sodipodi="http://sodipodi.sourceforge.net/DTD/sodipodi-0.dtd"
   xmlns:inkscape="http://www.inkscape.org/namespaces/inkscape"
   version="1.1"
   id="svg2"
   width="58.806839"
   height="30"
   viewBox="0 0 58.806839 30"
   sodipodi:docname="small-logo.svg"
   inkscape:version="0.92.2 (5c3e80d, 2017-08-06)">
  <metadata
     id="metadata8">
    <rdf:RDF>
      <cc:Work
         rdf:about="">
        <dc:format>image/svg+xml</dc:format>
        <dc:type
           rdf:resource="http://purl.org/dc/dcmitype/StillImage" />
        <dc:title></dc:title>
      </cc:Work>
    </rdf:RDF>
  </metadata>
  <defs
     id="defs6" />
  <sodipodi:namedview
     pagecolor="#ffffff"
     bordercolor="#666666"
     borderopacity="1"
     objecttolerance="10"
     gridtolerance="10"
     guidetolerance="10"
     inkscape:pageopacity="0"
     inkscape:pageshadow="2"
     inkscape:window-width="1366"
     inkscape:window-height="745"
     id="namedview4"
     showgrid="false"
     showguides="true"
     inkscape:guide-bbox="true"
     fit-margin-top="0"
     fit-margin-left="0"
     fit-margin-right="0"
     fit-margin-bottom="0"
     inkscape:zoom="1.8637701"
     inkscape:cx="18.906757"
     inkscape:cy="72.031178"
     inkscape:window-x="-8"
     inkscape:window-y="-8"
     inkscape:window-maximized="1"
     inkscape:current-layer="svg2" />
  <g
     id="g4588"
     transform="matrix(0.42270574,0,0,0.42292333,-19.203286,-19.77233)">
    <g
       transform="translate(0.53773176)"
       id="g4568">
      <path
         style="opacity:1;fill:#3e3e3e;fill-opacity:1;stroke:#3e3e3e;stroke-width:0.79673141;stroke-linecap:round;stroke-linejoin:round;stroke-miterlimit:4;stroke-dasharray:none;paint-order:fill markers stroke"
         d="m 81.046724,79.114611 c -0.0908,-8.726427 -0.16856,-9.770757 -0.75475,-10.140314 -0.47091,-0.29687 -0.7696,-0.295887 -1.06901,0.0035 -0.22853,0.228529 -1.59011,4.555085 -3.02573,9.614569 -1.43562,5.059485 -2.89897,9.864117 -2.96207,9.923436 -0.0631,0.05932 -1.02622,0.134773 -2.97809,0.04649 l -3.47986,-0.01394 -0.35899,-1.27545 c -0.19744,-0.701507 -1.43303,-5.08996 -2.74576,-9.752125 -1.38263,-4.910391 -2.60282,-8.559562 -2.90026,-8.673703 -0.28241,-0.10837 -0.76739,0.0137 -1.07774,0.271258 -0.47175,0.391517 -0.56426,2.015776 -0.56426,9.90674 v 9.438443 h -6.63943 -6.63943 v -20.48738 -20.48738 l 7.11368,0.0063 7.11367,0.0063 4.50913,8.90556 c 2.48002,4.898057 4.74,9.09716 5.02217,9.331339 0.28216,0.234179 0.77138,0.326642 1.08714,0.205474 0.31575,-0.121168 2.58008,-4.311037 5.03182,-9.310819 l 4.45772,-9.090513 6.86294,-0.02683 6.86294,-0.02683 0.26447,18.490314 c 0.14545,10.169673 0.40304,18.62889 0.57241,18.798262 0.16937,0.16937 0.75475,0.104375 1.30083,-0.144438 0.90266,-0.411281 1.54736,-2.115829 7.095306,-18.759759 l 6.10243,-18.307372 5.38762,-0.254966 c 2.9632,-0.140232 7.51076,-0.200241 10.1057,-0.133353 l 4.71807,0.121614 5.6527,17.262514 c 3.109,9.494384 5.85162,17.469751 6.09473,17.72304 0.2431,0.253288 0.62361,0.338652 0.84556,0.189698 0.32903,-0.22081 9.66901,-13.630275 10.52941,-15.117142 0.13662,-0.236099 -2.44777,-4.589667 -5.7431,-9.674597 -3.29533,-5.084929 -6.11999,-9.458736 -6.27702,-9.719571 -0.22461,-0.373087 1.31755,-0.473521 7.22995,-0.470851 l 7.51546,0.0034 2.77676,4.549358 c 1.52721,2.502147 3.00759,4.549358 3.28971,4.549358 0.28213,0 1.91606,-1.977854 3.63096,-4.395232 1.71489,-2.417377 3.31336,-4.470205 3.55216,-4.56184 0.23879,-0.09163 3.4626,-0.119836 7.16401,-0.06267 l 6.72983,0.103937 -6.13607,9.484899 c -3.37483,5.216694 -6.20551,9.745467 -6.29039,10.063939 -0.11478,0.430672 6.97116,12.743187 12.24118,21.270264 0.12523,0.202624 -2.58805,0.345357 -6.56505,0.345357 h -6.77849 l -3.74381,-5.501241 c -2.16483,-3.18106 -3.99577,-5.500171 -4.34123,-5.498705 -0.35405,0.0015 -1.96391,2.165251 -3.95186,5.311543 l -3.35444,5.309007 h -11.88532 -11.88532 l -0.84022,-2.560882 c -0.46213,-1.408508 -1.01179,-2.777536 -1.22148,-3.042287 -0.29194,-0.368584 -2.34678,-0.457473 -8.77046,-0.379395 l -8.3892,0.101967 -1.08632,3.130017 -1.08631,3.130016 H 94.756854 81.147974 Z m 41.601266,-6.815987 c 0.86084,-0.330334 0.73935,-0.982305 -1.05292,-5.650348 -2.13714,-5.566306 -2.45325,-5.557239 -4.65099,0.133404 -0.9148,2.368718 -1.66328,4.537356 -1.66328,4.819195 0,0.361288 0.69941,0.552165 2.37122,0.647134 1.30418,0.07408 2.82677,0.167596 3.38354,0.207802 0.55677,0.04021 1.28237,-0.03053 1.61243,-0.157187 z"
         id="path4514"
         inkscape:connector-curvature="0"
         sodipodi:nodetypes="sccsccccsccscccccccscsscccsccscsscccccscsccsccsccccscccscccccscccccscsssccc" />
      <path
         style="fill:#74c741;fill-opacity:1;stroke:#ffffff;stroke-width:0.40000001;stroke-linecap:butt;stroke-linejoin:miter;stroke-miterlimit:4;stroke-dasharray:none;stroke-opacity:1"
         d="m 95.077974,78.409551 0.56909,4.031082 14.891286,0.142273 3.79396,-4.600176 5.97549,13.847952 5.83321,-10.291115 h 16.36145 v -4.268204 h -18.16358 l -3.25776,5.642602 -5.5632,-13.277945 -7.11367,8.488984 H 94.840844 Z"
         id="path4516"
         inkscape:connector-curvature="0" />
    </g>
    <g
       style="fill:none;fill-opacity:1;stroke:#3e3e3e"
       transform="translate(220.25249,0.59238857)"
       id="g4564">
      <path
         sodipodi:nodetypes="cc"
         style="fill:none;fill-opacity:1;stroke:#3e3e3e;stroke-width:1.79999995;stroke-linecap:round;stroke-linejoin:bevel;stroke-miterlimit:4;stroke-dasharray:none;stroke-opacity:1;paint-order:markers fill stroke"
         d="m -173.91023,94.937666 h 16.56786"
         id="path4518"
         inkscape:connector-curvature="0" />
      <path
         sodipodi:nodetypes="cc"
         style="fill:none;fill-opacity:1;stroke:#3e3e3e;stroke-width:1.79999995;stroke-linecap:round;stroke-linejoin:bevel;stroke-miterlimit:4;stroke-dasharray:none;stroke-opacity:1;paint-order:markers fill stroke"
         d="M -166.06126,96.008786 V 115.72886"
         id="path4520"
         inkscape:connector-curvature="0" />
      <path
         style="fill:none;fill-opacity:1;stroke:#3e3e3e;stroke-width:1.79999995;stroke-linecap:round;stroke-linejoin:bevel;stroke-miterlimit:4;stroke-dasharray:none;stroke-opacity:1;paint-order:markers fill stroke"
         d="M -153.31827,94.535256 V 115.66179"
         id="path4522"
         inkscape:connector-curvature="0" />
      <path
         style="fill:none;fill-opacity:1;stroke:#3e3e3e;stroke-width:1.79999995;stroke-linecap:round;stroke-linejoin:bevel;stroke-miterlimit:4;stroke-dasharray:none;stroke-opacity:1;paint-order:markers fill stroke"
         d="m -152.98293,105.13206 h 6.30443"
         id="path4526"
         inkscape:connector-curvature="0" />
      <path
         style="fill:none;fill-opacity:1;stroke:#3e3e3e;stroke-width:1.79999995;stroke-linecap:round;stroke-linejoin:bevel;stroke-miterlimit:4;stroke-dasharray:none;stroke-opacity:1;paint-order:markers fill stroke"
         d="m -153.31827,94.535256 h 7.24338"
         id="path4528"
         inkscape:connector-curvature="0" />
      <path
         style="fill:none;fill-opacity:1;stroke:#3e3e3e;stroke-width:1.79999995;stroke-linecap:round;stroke-linejoin:bevel;stroke-miterlimit:4;stroke-dasharray:none;stroke-opacity:1;paint-order:markers fill stroke"
         d="m -146.6785,105.13206 7.71286,10.5968 9.1213,-21.193604 9.18836,21.126534"
         id="path4530"
         inkscape:connector-curvature="0" />
      <path
         style="fill:none;fill-opacity:1;stroke:#3e3e3e;stroke-width:1.79999995;stroke-linecap:round;stroke-linejoin:bevel;stroke-miterlimit:4;stroke-dasharray:none;stroke-opacity:1;paint-order:markers fill stroke"
         d="m -135.14274,107.74772 h 10.798"
         id="path4532"
         inkscape:connector-curvature="0" />
      <path
         style="fill:none;fill-opacity:1;stroke:#3e3e3e;stroke-width:1.79999995;stroke-linecap:round;stroke-linejoin:bevel;stroke-miterlimit:4;stroke-dasharray:none;stroke-opacity:1;paint-order:markers fill stroke"
         d="m -146.6785,105.13206 c 3.17095,-0.33551 7.66754,-7.182763 0.60361,-10.596804"
         id="path4534"
         inkscape:connector-curvature="0"
         sodipodi:nodetypes="cc" />
      <path
         style="fill:none;fill-opacity:1;stroke:#3e3e3e;stroke-width:1.79999995;stroke-linecap:round;stroke-linejoin:bevel;stroke-miterlimit:4;stroke-dasharray:none;stroke-opacity:1;paint-order:markers fill stroke"
         d="M -117.13849,94.226316 V 115.56734"
         id="path4536"
         inkscape:connector-curvature="0" />
      <path
         style="fill:none;fill-opacity:1;stroke:#3e3e3e;stroke-width:1.79999995;stroke-linecap:round;stroke-linejoin:bevel;stroke-miterlimit:4;stroke-dasharray:none;stroke-opacity:1;paint-order:markers fill stroke"
         d="M -109.83512,94.036618 V 115.85188"
         id="path4538"
         inkscape:connector-curvature="0" />
      <path
         style="fill:none;fill-opacity:1;stroke:#3e3e3e;stroke-width:1.79999995;stroke-linecap:round;stroke-linejoin:bevel;stroke-miterlimit:4;stroke-dasharray:none;stroke-opacity:1;paint-order:markers fill stroke"
         d="m -109.83512,94.036618 17.736758,22.500242 V 94.131467"
         id="path4542"
         inkscape:connector-curvature="0"
         sodipodi:nodetypes="ccc" />
      <path
         style="fill:none;fill-opacity:1;stroke:#3e3e3e;stroke-width:1.79999995;stroke-linecap:round;stroke-linejoin:bevel;stroke-miterlimit:4;stroke-dasharray:none;stroke-opacity:1;paint-order:markers fill stroke"
         d="M -85.269236,94.321165 V 115.56734"
         id="path4544"
         inkscape:connector-curvature="0" />
      <path
         style="fill:none;fill-opacity:1;stroke:#3e3e3e;stroke-width:1.79999995;stroke-linecap:round;stroke-linejoin:bevel;stroke-miterlimit:4;stroke-dasharray:none;stroke-opacity:1;paint-order:markers fill stroke"
         d="M -78.060713,115.75704 V 93.609797 l 17.926458,22.384363 V 94.131467"
         id="path4546"
         inkscape:connector-curvature="0"
         sodipodi:nodetypes="cccc" />
      <path
         style="fill:none;fill-opacity:1;stroke:#3e3e3e;stroke-width:1.79999995;stroke-linecap:round;stroke-linejoin:bevel;stroke-miterlimit:4;stroke-dasharray:none;stroke-opacity:1;paint-order:markers fill stroke"
         d="m -42.682042,106.65153 h 6.070335 l -0.06707,6.5436 c -2.641354,2.67321 -5.591519,2.65772 -7.800973,2.70481 -6.946424,0.14804 -9.977528,-4.70138 -10.087129,-9.61369 -0.06838,-3.06485 0.099,-5.55869 2.396062,-8.277274 2.128046,-2.51855 5.65196,-3.500041 8.490485,-3.386073 3.69267,0.148262 5.392377,1.502218 7.068623,3.326031"
         id="path4548"
         inkscape:connector-curvature="0"
         sodipodi:nodetypes="cccssssc" />
    </g>
  </g>
</svg>
